<?xml version="1.0"?>
<svg version="1.1" xmlns="http://www.w3.org/2000/svg" width="293" height="81" style="border: dashed 2px #aaa"><path fill="#" d="M58.308,68.202c0.054,0.918-0.216,1.458-1.242,1.458l-4.374,0c-1.134,0-1.35-0.54-1.404-1.782l-0.756-21.924l-0.108,0l-9.18,22.734c-0.324,0.864-0.864,0.972-1.458,0.972l-1.89,0c-0.81,0-1.296-0.162-1.674-1.026l-10.206-22.68l-0.108,0l-0.486,22.356c0,1.188-0.486,1.35-1.458,1.35l-3.672,0c-1.026,0-1.458-0.378-1.404-1.404l1.35-34.506c0.054-1.134,0.432-1.458,1.296-1.458l3.186,0c1.08,0,1.458,0.378,1.836,1.188l12.474,26.676l0.108,0l11.394-26.676c0.324-0.81,0.756-1.188,1.728-1.188l3.186,0c0.864,0,1.188,0.324,1.242,1.188z M93.219,56.538c0,7.776-4.752,13.77-13.176,13.77c-8.802,0-12.852-5.94-12.852-13.824c0-7.776,4.752-13.716,13.176-13.716c8.802,0,12.852,5.832,12.852,13.77z M86.469,56.538c0-4.428-1.404-8.64-6.156-8.64c-4.806,0-6.372,4.158-6.372,8.478c0,4.428,1.35,8.802,6.156,8.802c4.752,0,6.372-4.212,6.372-8.64z M123.81,44.226c0,0.162-0.054,0.324-0.108,0.54l-9.45,23.868c-0.324,0.81-0.756,1.026-1.566,1.026l-2.808,0c-0.81,0-1.35-0.216-1.62-0.972l-9.288-24.084c-0.054-0.162-0.108-0.324-0.108-0.486c0-0.432,0.27-0.648,0.972-0.648l4.752,0c0.918,0,1.35,0.378,1.566,1.08l4.104,12.582c0.54,1.62,1.026,3.402,1.35,4.59l0.054,0c0.27-1.026,0.81-2.916,1.296-4.428l4.212-12.69c0.27-0.918,0.702-1.134,1.674-1.134l3.888,0c0.702,0,1.08,0.27,1.08,0.756z M138.309,36.612c0,2.106-1.836,3.402-3.618,3.402s-3.672-1.188-3.672-3.348s1.782-3.456,3.672-3.456c1.836,0,3.618,1.242,3.618,3.402z M137.985,68.31c0,0.972-0.432,1.35-1.35,1.35l-3.78,0c-0.972,0-1.404-0.378-1.404-1.35l0-23.598c0-0.918,0.54-1.242,1.404-1.242l3.78,0c0.864,0,1.35,0.27,1.35,1.242l0,23.598z M171.222,56.484c0,1.296-0.432,1.566-1.782,1.566l-15.822,0c0.432,4.158,3.456,7.02,7.722,7.02c2.268,0,4.644-0.54,6.642-1.296c0.216-0.054,0.378-0.162,0.594-0.162c0.378,0,0.648,0.216,0.756,0.648l0.756,2.754c0.054,0.27,0.108,0.486,0.108,0.648c0,0.378-0.216,0.648-0.864,0.918c-2.646,1.188-6.264,1.728-9.072,1.728c-8.478,0-13.5-5.4-13.5-13.824c0-8.1,5.346-13.716,13.392-13.716c3.294,0,5.994,1.242,7.884,3.24c2.484,2.592,3.186,5.994,3.186,9.666l0,0.81z M164.796,53.784l0-0.594c-0.108-2.808-1.728-5.4-5.022-5.4c-3.51,0-5.616,2.808-6.048,5.994l11.07,0z"/><path fill="#" d="M210.947,35.4l-3.15,0l0,16l-21.1,0l0-16l-3.15,0l0,35.1l3.15,0l0-15.95l21.1,0l0,15.95l3.15,0l0-35.1z M247.039,35.45l-3.15,0l0,21.35q0,4.6-3.2,7.7q-3.15,3-7.5,3q-4.75,0-7.65-3q-2.95-3.05-2.95-7.7l0-21.35l-3.2,0l0,21.35q0,5.7,3.9,9.7q3.95,4.1,9.9,4.1q5.55,0,9.75-4.1q4.1-4,4.1-9.7l0-21.35z M278.531,52.65q1.95-0.95,3.2-3.15q1.25-2.1,1.25-4.5q0-4.3-2.9-6.95q-2.9-2.6-7.3-2.6l-14.05,0l-0.6,0l-2.55,0l0,35.05l2.55,0l0.6,0l14.05,0q4.4,0,7.3-2.6q2.9-2.65,2.9-6.95q0-2.35-1.225-4.575t-3.225-3.725z M258.731,38l14.05,0q3,0,4.95,2.05q2.1,2.2,2.1,4.95q0,2.25-1.65,4.15q-1.55,1.7-4.1,2.25l-1.3,0l-14.05,0l0-13.4z M272.781,67.95l-14.05,0l0-13.4l14.05,0l1.3,0q2.55,0.55,4.1,2.25q1.65,1.9,1.65,4.15q0,2.7-2.1,4.9q-2,2.1-4.95,2.1z"/></svg>
